<svg width="28" height="28" viewBox="0 0 28 28" fill="none" xmlns="http://www.w3.org/2000/svg">
<path fill-rule="evenodd" clip-rule="evenodd" d="M17.3899 19.0398C15.8094 20.2684 13.8235 21 11.6667 21C6.512 21 2.33333 16.8213 2.33333 11.6667C2.33333 6.51201 6.512 2.33333 11.6667 2.33333C16.8213 2.33333 21 6.51201 21 11.6667C21 13.8235 20.2684 15.8095 19.0398 17.3899L25.325 23.675C25.7806 24.1307 25.7806 24.8693 25.325 25.325C24.8693 25.7806 24.1307 25.7806 23.675 25.325L17.3899 19.0398ZM18.6667 11.6667C18.6667 15.5327 15.5327 18.6667 11.6667 18.6667C7.80067 18.6667 4.66666 15.5327 4.66666 11.6667C4.66666 7.80067 7.80067 4.66667 11.6667 4.66667C15.5327 4.66667 18.6667 7.80067 18.6667 11.6667Z" fill="white"/>
</svg>
